<?xml version="1.0" encoding="utf-8"?>
<!-- Generator: Adobe Illustrator 27.0.1, SVG Export Plug-In . SVG Version: 6.00 Build 0)  -->
<svg version="1.1" id="Réteg_1" xmlns="http://www.w3.org/2000/svg" xmlns:xlink="http://www.w3.org/1999/xlink" x="0px" y="0px"
	 viewBox="0 0 211.7 85" style="enable-background:new 0 0 211.7 85;" xml:space="preserve">
<style type="text/css">
	.st0{fill:#3DC0F0;}
	.st1{fill:#FFFFFF;stroke:#FFFFFF;stroke-width:6;stroke-miterlimit:10;}
	.st2{enable-background:new    ;}
	.st3{fill:#30B1CE;}
	.st4{fill:#FFFFFF;}
</style>
<path class="st0" d="M202.7,79.6H9.5c-2.6,0-4.7-2.1-4.7-4.7v-35c0-2.6,2.1-4.7,4.7-4.7h193.2c2.6,0,4.7,2.1,4.7,4.7V75
	C207.4,77.6,205.3,79.6,202.7,79.6z"/>
<g>
	<g>
		<g>
			<path class="st1" d="M16.6,24.7c-0.3-0.5-0.7-1.8-1.5-1.8c-1.3,0-0.9,5.6-0.9,6.9c0,4.5,2.7,2.4,2.7,4.7c0,2.4-4.5,2.5-6.1,2.5
				c-1.5,0-5.3-0.1-5.3-2.3c0-2.4,2.5-0.4,2.9-3.9C8.7,27.2,9,23.3,9,17.2c0-2.5-0.2-3.8-0.6-4.8C8,11.5,5.6,11.2,5.6,9.5
				c0-2.4,3.9-3,7.3-3c4.9,0,4.8,0.8,6.1,3c1.5,2.5,4.1,9.4,5.9,9.8c1.3,0.3,3-4.8,4.5-7.6c2.1-4,2.2-5.2,7.7-5.2
				c1.9,0,6.1,0.1,6.1,2.8c0,1.7-1.9,2-2.3,3.5c-0.3,1.2-0.6,6.1-0.6,8c0,0.6,0.3,5.3,0.4,9.2c0.1,3.1,2.7,2.4,2.7,4.3
				c0,2.8-5.8,2.7-7.6,2.7c-1.7,0-7.5,0.2-7.5-2.5c0-1.5,1.9-1.7,2.2-3.1c0.2-0.7,1-8-0.5-8c-1.3,0-2.7,3.7-3.7,5.9
				c-0.9,1.9-2.4,6.7-3.8,6.6c-0.7-0.1-1,0-3.5-5.7L16.6,24.7z"/>
			<path class="st1" d="M48.4,13.9c0.1-4.3-3.1-2.2-3.1-5c0-1.9,2.4-2.2,3.9-2.2h13.7c11.7,0,15.5,7.2,15.5,14.8
				c0,7.8-4.6,15.2-15.2,15.2c-1.8,0-3.3,0-4.6-0.1c-1.3,0-2.4-0.1-3.6-0.1s-2.4,0-3.6,0.1c-1.2,0.1-2.4,0.1-3.6,0.1
				c-1.4,0-3.2-0.7-3.2-2.4c0-3,3.3,0.3,3.5-5.8L48.4,13.9z M58.5,29.3c0,2.1,0.3,3,2.6,3c5.3,0,6.2-5.4,6.2-9.6
				c0-9.9-3.7-11.4-6.9-11.4c-1.8,0-1.9,0.7-1.9,2.3C58.5,13.6,58.5,29.3,58.5,29.3z"/>
			<path class="st1" d="M94.4,16.2c0-4.4,4.2-9.8,12.4-9.8c2.7,0,5.7,1.2,6.4,1.2c0.6,0,1.2-0.6,2.1-0.6c1.4,0,4.6,3.2,4.6,6.8
				c0,1.4-0.9,2.9-2.5,2.9c-2.8,0-4.5-4.8-8.8-4.8c-1.3,0-2.7,0.6-2.7,2.1c0,3.3,5.8,2.4,10.7,5.7c2.6,1.7,3.9,3.8,3.9,7
				c0,4.9-4,10.5-13.9,10.5c-2.8,0-7.5-0.7-9.9-2c-2-1.1-3-5.6-3-7.7c0-1.1,0.5-2.3,1.8-2.3c3,0,2.5,6.7,10.2,6.7
				c0.9,0,3.2-0.5,3.2-2.1c0-3-5.8-2.3-10.4-6C96.1,21.8,94.4,19.2,94.4,16.2z"/>
			<path class="st1" d="M148.8,30.2c0,3.6,2.1,2.7,2.1,4.3c0,2.4-5.4,2.4-6.9,2.4c-1.3,0-6.4,0-6.4-2.1c0-1.2,1.2-1.2,1.5-3.3
				c0.3-1.3,0.3-2.8,0.3-4.2c0-2.1,0-6.1-3-6.1c-2.6,0-2.5,2.2-2.5,4.1v4.9c0,3.5,1.7,2.8,1.7,4.3c0,2.4-4.8,2.5-6.4,2.5
				c-6,0-7.4-1.3-7.4-2.6c0-1.7,1.6-0.9,2.4-3.7c0.5-2,0.5-7.5,0.5-9.9c0-1.9-0.1-3.8-0.2-5.7c-0.1-3-2.6-1.9-2.6-3.9
				c0-3.4,10.9-4.3,11-4.3c1.3,0,1.3,0.4,1.3,1.6l-0.3,8c0,0.8-0.1,2.1,1,2.1c1.3,0,1.8-3.7,6.5-3.7c7.7,0,7.2,7.3,7.2,8.5
				L148.8,30.2z"/>
			<path class="st1" d="M152.1,26.8c0-7.5,6.6-11.8,13.6-11.8c7.4,0,11.6,5.8,11.6,11c0,6.9-7.4,11.1-13.6,11.1
				C157.4,37.1,152.1,33.4,152.1,26.8z M163.8,20c-1.4,0-2.1,1.3-2.1,2.5c0.2,2.7,0.9,9.1,3.8,9.3c1.6,0.1,1.9-1.3,1.9-2.6
				C167.5,27.3,166.7,20,163.8,20z"/>
			<path class="st1" d="M181.6,28.2c0-4.4-0.3-5.4-0.5-5.6c-0.5-0.5-2.8,0-2.8-2.4c0-2.9,8.7-5.1,11.8-5.1c1,0,1.2,0.3,1.2,1.3
				c0,0.3,0,0.9,0.5,0.9c0.6,0,2.9-2.3,6.4-2.3c5.5,0,8.5,5.5,8.5,10.4c0,5.6-4,11.7-10.1,11.7c-2,0-4-1.1-4.3-1.1
				c-0.6,0-0.7,0.9-0.7,1.3c0,3.2,2.6,2.2,2.6,4.3c0,2.4-3.8,2.7-5.5,2.7c-5.6,0-10.1-2.1-10.1-4.2c0-1.9,1.7-1.2,2.5-2.8
				c0.4-0.9,0.6-2.1,0.6-6.8L181.6,28.2L181.6,28.2z M193.2,21.2c-1.5,0-2,0.6-2,8.3c0,1.4,0.7,1.9,2.1,1.9c2.6,0,2.9-2.8,2.9-4.8
				C196.3,24.6,195.8,21.2,193.2,21.2z"/>
		</g>
	</g>
</g>
<g class="st2">
	<path class="st3" d="M16.6,25.3c-0.3-0.5-0.7-1.8-1.5-1.8c-1.3,0-0.9,5.6-0.9,6.9c0,4.5,2.7,2.4,2.7,4.7c0,2.4-4.5,2.5-6.1,2.5
		c-1.5,0-5.3-0.1-5.3-2.3c0-2.4,2.5-0.4,2.9-3.9C8.7,27.8,9,23.9,9,17.8C9,15.3,8.8,14,8.4,13c-0.4-0.9-2.8-1.2-2.8-2.9
		c0-2.4,3.9-3,7.3-3c4.9,0,4.8,0.8,6.1,3c1.5,2.5,4.1,9.4,5.9,9.8c1.3,0.3,3-4.8,4.5-7.6c2.1-4,2.2-5.2,7.7-5.2
		c1.9,0,6.1,0.1,6.1,2.8c0,1.7-1.9,2-2.3,3.5c-0.3,1.2-0.6,6.1-0.6,8c0,0.6,0.3,5.3,0.4,9.2c0.1,3.1,2.7,2.4,2.7,4.3
		c0,2.8-5.8,2.7-7.6,2.7c-1.7,0-7.5,0.2-7.5-2.5c0-1.5,1.9-1.7,2.2-3.1c0.2-0.7,1-8-0.5-8c-1.3,0-2.7,3.7-3.7,5.9
		c-0.9,1.9-2.4,6.7-3.8,6.6c-0.7-0.1-1,0-3.5-5.7L16.6,25.3z"/>
	<path class="st3" d="M48.4,14.5c0.1-4.3-3.1-2.2-3.1-5c0-1.9,2.4-2.2,3.9-2.2h13.7c11.7,0,15.5,7.2,15.5,14.8
		c0,7.8-4.6,15.2-15.2,15.2c-1.8,0-3.3,0-4.6-0.1c-1.3,0-2.4-0.1-3.6-0.1s-2.4,0-3.6,0.1s-2.4,0.1-3.6,0.1c-1.4,0-3.2-0.7-3.2-2.4
		c0-3,3.3,0.3,3.5-5.8L48.4,14.5z M58.5,29.9c0,2.1,0.3,3,2.6,3c5.3,0,6.2-5.4,6.2-9.6c0-9.9-3.7-11.4-6.9-11.4
		c-1.8,0-1.9,0.7-1.9,2.3C58.5,14.2,58.5,29.9,58.5,29.9z"/>
	<path class="st3" d="M94.4,16.8c0-4.4,4.2-9.8,12.4-9.8c2.7,0,5.7,1.2,6.4,1.2c0.6,0,1.2-0.6,2.1-0.6c1.4,0,4.6,3.2,4.6,6.8
		c0,1.4-0.9,2.9-2.5,2.9c-2.8,0-4.5-4.8-8.8-4.8c-1.3,0-2.7,0.6-2.7,2.1c0,3.3,5.8,2.4,10.7,5.7c2.6,1.7,3.9,3.8,3.9,7
		c0,4.9-4,10.5-13.9,10.5c-2.8,0-7.5-0.7-9.9-2c-2-1.1-3-5.6-3-7.7c0-1.1,0.5-2.3,1.8-2.3c3,0,2.5,6.7,10.2,6.7
		c0.9,0,3.2-0.5,3.2-2.1c0-3-5.8-2.3-10.4-6C96.1,22.4,94.4,19.8,94.4,16.8z"/>
	<path class="st3" d="M148.8,30.8c0,3.6,2.1,2.7,2.1,4.3c0,2.4-5.4,2.4-6.9,2.4c-1.3,0-6.4,0-6.4-2.1c0-1.2,1.2-1.2,1.5-3.3
		c0.3-1.3,0.3-2.8,0.3-4.2c0-2.1,0-6.1-3-6.1c-2.6,0-2.5,2.2-2.5,4.1v4.9c0,3.5,1.7,2.8,1.7,4.3c0,2.4-4.8,2.5-6.4,2.5
		c-6,0-7.4-1.3-7.4-2.6c0-1.7,1.6-0.9,2.4-3.7c0.5-2,0.5-7.5,0.5-9.9c0-1.9-0.1-3.8-0.2-5.7c-0.1-3-2.6-1.9-2.6-3.9
		c0-3.4,10.9-4.3,11-4.3c1.3,0,1.3,0.4,1.3,1.6l-0.3,8c0,0.8-0.1,2.1,1,2.1c1.3,0,1.8-3.7,6.5-3.7c7.7,0,7.2,7.3,7.2,8.5L148.8,30.8
		z"/>
	<path class="st3" d="M152.1,27.4c0-7.5,6.6-11.8,13.6-11.8c7.4,0,11.6,5.8,11.6,11c0,6.9-7.4,11.1-13.6,11.1
		C157.4,37.7,152.1,34,152.1,27.4z M163.8,20.6c-1.4,0-2.1,1.3-2.1,2.5c0.2,2.7,0.9,9.1,3.8,9.3c1.6,0.1,1.9-1.3,1.9-2.6
		C167.5,27.9,166.7,20.6,163.8,20.6z"/>
	<path class="st3" d="M181.6,28.8c0-4.4-0.3-5.4-0.5-5.6c-0.5-0.5-2.8,0-2.8-2.4c0-2.9,8.7-5.1,11.8-5.1c1,0,1.2,0.3,1.2,1.3
		c0,0.3,0,0.9,0.5,0.9c0.6,0,2.9-2.3,6.4-2.3c5.5,0,8.5,5.5,8.5,10.4c0,5.6-4,11.7-10.1,11.7c-2,0-4-1.1-4.3-1.1
		c-0.6,0-0.7,0.9-0.7,1.3c0,3.2,2.6,2.2,2.6,4.3c0,2.4-3.8,2.7-5.5,2.7c-5.6,0-10.1-2.1-10.1-4.2c0-1.9,1.7-1.2,2.5-2.8
		c0.4-0.9,0.6-2.1,0.6-6.8L181.6,28.8L181.6,28.8z M193.2,21.8c-1.5,0-2,0.6-2,8.3c0,1.4,0.7,1.9,2.1,1.9c2.6,0,2.9-2.8,2.9-4.8
		S195.8,21.8,193.2,21.8z"/>
</g>
<g class="st2">
	<path class="st4" d="M24.6,61.1V49.2h2v11.9c0,1.6,0.6,3,1.7,4.2c1.2,1.2,2.6,1.7,4.2,1.7c1.6,0,3-0.6,4.2-1.7
		c1.2-1.2,1.7-2.6,1.7-4.2v-9.9l2-2v11.9c0,2.2-0.8,4.1-2.3,5.6c-1.5,1.5-3.4,2.3-5.6,2.3c-2.2,0-4.1-0.8-5.6-2.3
		c-0.5-0.5-1-1.1-1.3-1.7c-0.3,0.6-0.8,1.2-1.3,1.7c-1.5,1.5-3.4,2.3-5.6,2.3s-4.1-0.8-5.6-2.3c-1.5-1.5-2.3-3.4-2.3-5.6V49.2h2
		v11.9c0,1.6,0.6,3,1.7,4.2c1.2,1.2,2.6,1.7,4.2,1.7s3-0.6,4.2-1.7C24.1,64.1,24.6,62.7,24.6,61.1z"/>
	<path class="st4" d="M50.4,60.1c0.2,1.8,0.9,3.3,2.3,4.6c1.5,1.5,3.4,2.3,5.6,2.3s4.1-0.8,5.6-2.3c0.8-0.8,1.4-1.7,1.8-2.6h2.1
		c-0.4,1.5-1.3,2.8-2.5,4C63.4,68,61,69,58.3,69s-5.1-1-7-2.9c-1.9-1.9-2.9-4.3-2.9-7c0-2.7,1-5.1,2.9-7c1.9-1.9,4.3-2.9,7-2.9
		s5.1,1,7,2.9c1.9,1.9,2.9,4.3,2.9,7c0,0.3,0,0.7,0,1H50.4z M66.1,58.1c-0.2-1.8-0.9-3.3-2.3-4.6c-1.5-1.5-3.4-2.3-5.6-2.3
		s-4.1,0.8-5.6,2.3c-1.3,1.3-2.1,2.8-2.3,4.6H66.1z"/>
	<path class="st4" d="M78.1,53.1c0.3-0.4,0.6-0.7,0.9-1c1.9-1.9,4.3-2.9,7-2.9s5.1,1,7,2.9c1.9,1.9,2.9,4.3,2.9,7c0,2.7-1,5.1-2.9,7
		C91,68,88.7,69,86,69s-5.1-1-7-2.9c-1.9-1.9-2.9-4.3-2.9-7V41.3l2,2V53.1z M86,67c2.2,0,4.1-0.8,5.6-2.3c1.5-1.5,2.3-3.4,2.3-5.6
		c0-2.2-0.8-4.1-2.3-5.6s-3.4-2.3-5.6-2.3s-4.1,0.8-5.6,2.3s-2.3,3.4-2.3,5.6c0,2.2,0.8,4.1,2.3,5.6C81.9,66.2,83.8,67,86,67z"/>
	<path class="st4" d="M109.2,60.1c-1.5,0-2.8-0.5-3.8-1.6c-1.1-1.1-1.6-2.3-1.6-3.8s0.5-2.8,1.6-3.8c1.1-1.1,2.3-1.6,3.8-1.6h8.4v2
		h-8.4c-1,0-1.8,0.3-2.4,1s-1,1.5-1,2.4c0,1,0.3,1.8,1,2.4s1.5,1,2.4,1h3c1.5,0,2.8,0.5,3.8,1.6c1.1,1.1,1.6,2.3,1.6,3.8
		s-0.5,2.8-1.6,3.8s-2.3,1.6-3.8,1.6h-8.4v-2h8.4c1,0,1.8-0.3,2.4-1c0.7-0.7,1-1.5,1-2.4c0-1-0.3-1.8-1-2.4c-0.7-0.7-1.5-1-2.4-1
		H109.2z"/>
	<path class="st4" d="M125.6,41.3l2,2v9.9c0.3-0.4,0.6-0.7,0.9-1c1.9-1.9,4.3-2.9,7-2.9c2.7,0,5.1,1,7,2.9c1.9,1.9,2.9,4.3,2.9,7V69
		h-2v-9.9c0-2.2-0.8-4.1-2.3-5.6c-1.5-1.5-3.4-2.3-5.6-2.3c-2.2,0-4.1,0.8-5.6,2.3c-1.5,1.5-2.3,3.4-2.3,5.6V69h-2V41.3z"/>
	<path class="st4" d="M163.2,69c-2.7,0-5.1-1-7-2.9c-1.9-1.9-2.9-4.3-2.9-7c0-2.7,1-5.1,2.9-7c1.9-1.9,4.3-2.9,7-2.9
		c2.7,0,5.1,1,7,2.9c1.9,1.9,2.9,4.3,2.9,7c0,2.7-1,5.1-2.9,7C168.2,68,165.9,69,163.2,69z M163.2,67c2.2,0,4.1-0.8,5.6-2.3
		c1.5-1.5,2.3-3.4,2.3-5.6c0-2.2-0.8-4.1-2.3-5.6s-3.4-2.3-5.6-2.3c-2.2,0-4.1,0.8-5.6,2.3c-1.5,1.5-2.3,3.4-2.3,5.6
		c0,2.2,0.8,4.1,2.3,5.6C159.1,66.2,161,67,163.2,67z"/>
	<path class="st4" d="M181,59.1c0-2.7,1-5.1,2.9-7c1.9-1.9,4.3-2.9,7-2.9c2.7,0,5.1,1,7,2.9c1.9,1.9,2.9,4.3,2.9,7
		c0,2.7-1,5.1-2.9,7c-1.9,1.9-4.3,2.9-7,2.9c-2.7,0-5.1-1-7-2.9c-0.3-0.3-0.7-0.7-0.9-1v9.9l-2,2V59.1z M190.9,51.2
		c-2.2,0-4.1,0.8-5.6,2.3c-1.5,1.5-2.3,3.4-2.3,5.6c0,2.2,0.8,4.1,2.3,5.6c1.5,1.5,3.4,2.3,5.6,2.3c2.2,0,4.1-0.8,5.6-2.3
		c1.5-1.5,2.3-3.4,2.3-5.6c0-2.2-0.8-4.1-2.3-5.6S193.1,51.2,190.9,51.2z"/>
</g>
</svg>
